<svg xmlns="http://www.w3.org/2000/svg" version="1.1" xmlns:xlink="http://www.w3.org/1999/xlink" xmlns:svgjs="http://svgjs.dev/svgjs" width="2000" height="1500" viewBox="0 0 2000 1500"><rect width="2000" height="1500" fill="#ffffff"></rect><g transform="matrix(0.75,0,0,0.75,249.090909090909,282.7536437246963)"><svg viewBox="0 0 396 247" data-background-color="#ffffff" preserveAspectRatio="xMidYMid meet" height="1247" width="2000" xmlns="http://www.w3.org/2000/svg" xmlns:xlink="http://www.w3.org/1999/xlink"><g id="tight-bounds" transform="matrix(1,0,0,1,0.2400000000000091,-0.09999999999999432)"><svg viewBox="0 0 395.52 247.2" height="247.2" width="395.52"><g><svg></svg></g><g><svg viewBox="0 0 395.52 247.2" height="247.2" width="395.52"><mask id="2f8c9f3c-bf3f-4c5e-949c-7b374930c64f"><rect width="395.52" height="247.2" fill="white"></rect><g transform="matrix(1,0,0,1,0,57.58570763270353)" id="clone"><svg viewBox="0 0 395.52 132.02858473459293" height="132.02858473459293" width="395.52"><g><svg viewBox="0 0 395.52 132.02858473459293" height="132.02858473459293" width="395.52"><g><svg viewBox="0 0 395.52 132.02858473459293" height="132.02858473459293" width="395.52"><g><svg viewBox="0 0 395.52 132.02858473459293" height="132.02858473459293" width="395.52"><g id="SvgjsG1183"><svg viewBox="0 0 395.52 132.02858473459293" height="132.02858473459293" width="395.52" id="SvgjsSvg1182"><g><svg viewBox="0 0 395.52 87.0299123099123" height="87.0299123099123" width="395.52"><g transform="matrix(1,0,0,1,0,0)"><svg width="395.52" viewBox="-1.4900000095367432 -42.11000061035156 264.9100036621094 59.06999969482422" height="87.0299123099123" data-palette-color="#e6b17e"><path d="M24.12-26.17L24.12-26.17Q24.12-23.54 22.97-21 21.83-18.46 19.92-16.43 18.02-14.4 15.58-13.11 13.13-11.82 10.55-11.67L10.55-11.67Q10.5-10.79 10.47-9.45 10.45-8.11 10.3-6.64 10.16-5.18 9.89-3.71 9.62-2.25 9.11-1.07 8.59 0.1 7.79 0.83 6.98 1.56 5.81 1.56L5.81 1.56Q4.44 1.56 3.64 0.66 2.83-0.24 2.42-1.51 2-2.78 1.86-4.17 1.71-5.57 1.66-6.54L1.66-6.54Q1.56-7.96 1.54-9.33 1.51-10.69 1.51-12.11L1.51-12.11Q1.51-12.74 1.51-14.48 1.51-16.21 1.54-18.43 1.56-20.65 1.61-23.07 1.66-25.49 1.76-27.56 1.86-29.64 1.98-31.1 2.1-32.57 2.29-32.81L2.29-32.81Q2.34-32.86 2.59-33.03 2.83-33.2 3.13-33.37 3.42-33.54 3.66-33.69 3.91-33.84 4-33.89L4-33.89Q6.25-35.16 8.94-36.08 11.62-37.01 14.26-37.01L14.26-37.01Q16.5-37.01 18.33-36.11 20.17-35.21 21.46-33.72 22.75-32.23 23.44-30.25 24.12-28.27 24.12-26.17ZM15.67-25.05L15.67-25.05Q15.67-26.03 15.21-26.76 14.75-27.49 13.67-27.49L13.67-27.49Q12.74-27.49 11.82-27.12 10.89-26.76 10.11-26.37L10.11-26.37Q10.25-24.66 10.38-23.05 10.5-21.44 10.4-19.73L10.4-19.73Q11.18-20.12 12.11-20.63 13.04-21.14 13.82-21.78 14.6-22.41 15.14-23.22 15.67-24.02 15.67-25.05ZM42.23-18.26L42.23-18.26Q41.55-18.21 41.06-18.38 40.57-18.55 40.09-18.75L40.09-18.75Q39.65-18.95 39.21-19.12 38.77-19.29 38.23-19.24L38.23-19.24Q37.25-19.19 36.5-18.7 35.74-18.21 35.13-17.48 34.52-16.75 34.08-15.84 33.64-14.94 33.4-14.06L33.4-14.06Q33.25-13.48 33.18-12.28 33.1-11.08 33.1-9.72L33.1-9.72Q33.05-8.3 33.05-7.03 33.05-5.76 32.96-5.03L32.96-5.03Q32.91-4.25 32.71-3.2 32.52-2.15 32.1-1.22 31.69-0.29 31 0.34 30.32 0.98 29.25 0.98L29.25 0.98Q28.42 0.98 27.81 0.49 27.19 0 26.78-0.81 26.36-1.61 26.1-2.69 25.83-3.76 25.68-4.88L25.68-4.88Q25.53-6.05 25.46-7.23 25.39-8.4 25.36-9.45 25.34-10.5 25.36-11.38 25.39-12.26 25.39-12.79L25.39-12.79Q25.34-14.5 25.22-16.24 25.1-17.97 25.1-19.68L25.1-19.68Q25.1-20.75 25.19-22.07 25.29-23.39 25.73-24.54 26.17-25.68 27.02-26.46 27.88-27.25 29.39-27.25L29.39-27.25Q30.22-27.25 30.81-26.71 31.39-26.17 31.76-25.39 32.13-24.61 32.32-23.73 32.52-22.85 32.57-22.12L32.57-22.12Q33.74-24.02 35.2-25.22 36.67-26.42 39.01-26.51L39.01-26.51Q40.18-26.56 41.33-26.29 42.48-26.03 43.43-25.42 44.38-24.8 44.99-23.83 45.6-22.85 45.65-21.53L45.65-21.53Q45.75-19.97 44.72-19.14 43.7-18.31 42.23-18.26ZM55.66 1.42L55.66 1.42Q53.17 1.42 51.31 0.1 49.46-1.22 48.19-3.27 46.92-5.32 46.28-7.84 45.65-10.35 45.65-12.79L45.65-12.79Q45.65-15.38 46.28-18.14 46.92-20.9 48.24-23.17 49.56-25.44 51.61-26.88 53.66-28.32 56.49-28.32L56.49-28.32Q59.22-28.32 61.15-26.83 63.08-25.34 64.25-23.12 65.42-20.9 65.91-18.26 66.4-15.63 66.25-13.28L66.25-13.28Q66.11-10.69 65.45-8.06 64.79-5.42 63.52-3.32 62.25-1.22 60.3 0.1 58.34 1.42 55.66 1.42ZM56.15-20.65L56.15-20.65Q55.41-20.65 54.85-19.87 54.29-19.09 53.93-17.97 53.56-16.85 53.36-15.6 53.17-14.36 53.17-13.43L53.17-13.43Q53.17-12.26 53.39-10.89 53.61-9.52 54-8.37 54.39-7.23 54.95-6.47 55.51-5.71 56.25-5.71L56.25-5.71Q57.03-5.71 57.59-6.45 58.15-7.18 58.49-8.3 58.83-9.42 58.98-10.77 59.13-12.11 59.13-13.28L59.13-13.28Q59.13-14.36 58.93-15.65 58.74-16.94 58.37-18.07 58-19.19 57.44-19.92 56.88-20.65 56.15-20.65ZM98.38-16.11L98.38-16.11Q98.38-15.19 98.38-13.6 98.38-12.01 98.31-10.16 98.23-8.3 97.99-6.42 97.75-4.54 97.23-3.03 96.72-1.51 95.94-0.54 95.16 0.44 93.94 0.44L93.94 0.44Q92.86 0.44 92.3-0.46 91.74-1.37 91.5-2.59 91.25-3.81 91.23-5.08 91.2-6.35 91.2-7.08L91.2-7.08Q91.2-9.28 91.35-11.38 91.5-13.48 91.5-15.67L91.5-15.67Q91.5-15.92 91.5-16.55 91.5-17.19 91.4-17.82 91.3-18.46 91.08-18.95 90.86-19.43 90.42-19.43L90.42-19.43Q89.54-19.43 89.01-18.53 88.47-17.63 88.13-16.41 87.79-15.19 87.64-13.99 87.49-12.79 87.44-12.21L87.44-12.21Q87.35-11.57 87.27-10.3 87.2-9.03 87.08-7.52 86.96-6.01 86.69-4.42 86.42-2.83 86-1.54 85.59-0.24 84.95 0.59 84.32 1.42 83.39 1.42L83.39 1.42Q82.22 1.42 81.58 0.39 80.95-0.63 80.66-2 80.36-3.37 80.29-4.79 80.22-6.2 80.22-6.98L80.22-6.98Q80.22-7.81 80.24-8.59 80.27-9.38 80.27-10.21L80.27-10.21Q80.27-10.55 80.27-11.33 80.27-12.11 80.24-13.06 80.22-14.01 80.14-15.04 80.07-16.06 79.92-16.92 79.78-17.77 79.48-18.31 79.19-18.85 78.8-18.85L78.8-18.85Q78.17-18.85 77.63-18.04 77.09-17.24 76.7-16.14 76.31-15.04 76.09-13.96 75.87-12.89 75.87-12.4L75.87-12.4 75.87-12.11Q75.87-9.77 76.16-7.52 76.46-5.27 76.46-2.93L76.46-2.93Q76.46-1.56 75.58-0.42 74.7 0.73 73.14 0.73L73.14 0.73Q72.01 0.73 71.28-0.12 70.55-0.98 70.06-2.34 69.57-3.71 69.3-5.35 69.04-6.98 68.94-8.57 68.84-10.16 68.82-11.45 68.79-12.74 68.79-13.38L68.79-13.38Q68.79-14.11 68.77-15.53 68.74-16.94 68.82-18.6 68.89-20.26 69.08-22 69.28-23.73 69.72-25.15 70.16-26.56 70.87-27.47 71.57-28.37 72.7-28.37L72.7-28.37Q73.97-28.37 74.77-27.69 75.58-27 75.58-25.63L75.58-25.63Q75.58-25.34 75.55-25.05 75.53-24.76 75.48-24.51L75.48-24.51Q76.02-25.29 76.8-26.1 77.58-26.9 78.48-27.56 79.39-28.22 80.41-28.64 81.44-29.05 82.46-29.05L82.46-29.05Q83.44-29.05 84.22-28.52 85-27.98 85.59-27.17 86.17-26.37 86.56-25.44 86.96-24.51 87.1-23.68L87.1-23.68Q87.59-24.56 88.3-25.46 89.01-26.37 89.84-27.05 90.67-27.73 91.67-28.17 92.67-28.61 93.74-28.61L93.74-28.61Q94.77-28.61 95.5-27.88 96.23-27.15 96.77-26 97.31-24.85 97.6-23.41 97.89-21.97 98.09-20.58 98.28-19.19 98.33-17.99 98.38-16.8 98.38-16.11ZM123.96-14.55L123.96-14.55Q123.96-12.4 123.5-9.84 123.04-7.28 121.94-5.08 120.84-2.88 119.06-1.42 117.28 0.05 114.59 0.05L114.59 0.05Q113.91 0.05 113.17-0.05 112.44-0.15 111.78-0.39 111.12-0.63 110.59-1.05 110.05-1.46 109.76-2.15L109.76-2.15 109.32 4.88Q109.27 6.01 109.24 7.57 109.22 9.13 108.85 10.55 108.49 11.96 107.63 12.96 106.78 13.96 105.17 13.96L105.17 13.96Q104.24 13.96 103.6 13.01 102.97 12.06 102.6 10.6 102.24 9.13 102.04 7.32 101.85 5.52 101.8 3.86 101.75 2.2 101.75 0.83 101.75-0.54 101.75-1.17L101.75-1.17Q101.75-4.44 101.7-7.69 101.65-10.94 101.65-14.21L101.65-14.21Q101.65-14.79 101.65-16.04 101.65-17.29 101.75-18.75 101.85-20.21 102.07-21.78 102.28-23.34 102.72-24.63 103.16-25.93 103.85-26.73 104.53-27.54 105.51-27.54L105.51-27.54Q106.14-27.54 106.66-27.17 107.17-26.81 107.53-26.25 107.9-25.68 108.14-25.05 108.39-24.41 108.53-23.88L108.53-23.88Q110.05-25.59 112.03-26.46 114-27.34 116.25-27.34L116.25-27.34Q118.59-27.34 120.08-26.03 121.57-24.71 122.43-22.75 123.28-20.8 123.62-18.58 123.96-16.36 123.96-14.55ZM116.98-14.94L116.98-14.94Q116.98-15.67 116.86-16.43 116.74-17.19 116.42-17.85 116.1-18.51 115.52-18.92 114.93-19.34 114.05-19.34L114.05-19.34Q112.88-19.34 111.59-18.58 110.29-17.82 109.66-16.85L109.66-16.85Q109.41-16.46 109.37-15.58 109.32-14.7 109.32-14.26L109.32-14.26Q109.32-13.92 109.34-13.35 109.37-12.79 109.41-12.21 109.46-11.62 109.54-11.08 109.61-10.55 109.76-10.25L109.76-10.25Q109.9-9.81 110.39-9.45 110.88-9.08 111.46-8.79 112.05-8.5 112.66-8.35 113.27-8.2 113.71-8.2L113.71-8.2Q114.74-8.2 115.37-8.98 116.01-9.77 116.37-10.84 116.74-11.91 116.86-13.06 116.98-14.21 116.98-14.94ZM138.32 1.76L138.32 1.76Q134.85 1.76 132.92 0.85 130.99-0.05 130.04-1.71 129.09-3.37 128.89-5.71 128.7-8.06 128.7-10.94L128.7-10.94Q128.7-13.23 128.84-15.55 128.99-17.87 129.28-20.51L129.28-20.51Q128.6-20.51 128.21-20.48 127.82-20.46 127.58-20.46L127.58-20.46Q126.01-20.46 124.87-21.14 123.72-21.83 123.72-23.24L123.72-23.24Q123.72-24.12 124.38-24.8 125.04-25.49 126.06-25.98 127.09-26.46 128.28-26.76 129.48-27.05 130.55-27.15L130.55-27.15Q130.55-28.52 130.75-30.18 130.94-31.84 131.46-33.28 131.97-34.72 132.85-35.69 133.73-36.67 135.09-36.67L135.09-36.67Q135.88-36.67 136.49-36.21 137.1-35.74 137.49-35.03 137.88-34.33 138.07-33.45 138.27-32.57 138.27-31.74L138.27-31.74Q138.27-30.76 138.12-29.74 137.98-28.71 137.59-27.2L137.59-27.2Q138.42-27.29 138.71-27.32 139-27.34 139.25-27.34L139.25-27.34Q140.08-27.34 140.98-27.2 141.88-27.05 142.64-26.71 143.4-26.37 143.88-25.81 144.37-25.24 144.37-24.46L144.37-24.46Q144.37-23.58 143.66-22.9 142.96-22.22 141.88-21.73 140.81-21.24 139.59-20.97 138.37-20.7 137.29-20.61L137.29-20.61Q137-18.6 136.88-16.92 136.76-15.23 136.61-13.53L136.61-13.53Q136.51-12.7 136.44-11.84 136.36-10.99 136.36-10.11L136.36-10.11Q136.36-9.47 136.41-8.62 136.46-7.76 136.76-6.98 137.05-6.2 137.68-5.64 138.32-5.08 139.44-5.08L139.44-5.08Q140.12-5.08 140.86-5.2 141.59-5.32 142.32-5.32L142.32-5.32Q143.59-5.32 144.15-4.44 144.71-3.56 144.71-2.2L144.71-2.2Q144.71-1.17 144.1-0.42 143.49 0.34 142.57 0.81 141.64 1.27 140.49 1.51 139.34 1.76 138.32 1.76ZM162.58-33.15L162.58-33.15Q162.58-32.23 162.17-31.49 161.75-30.76 161.07-30.25 160.39-29.74 159.56-29.39 158.73-29.05 157.94-28.91L157.94-28.91Q157.85-23.39 157.53-18.26 157.21-13.13 156.53-7.67L156.53-7.67 156.82-7.67Q157.6-7.67 158.36-7.5 159.12-7.32 159.73-6.91 160.34-6.49 160.7-5.88 161.07-5.27 161.07-4.39L161.07-4.39Q161.07-3.27 160.36-2.44 159.65-1.61 158.51-1.03 157.36-0.44 155.94-0.05 154.53 0.34 153.11 0.56 151.69 0.78 150.42 0.88 149.15 0.98 148.37 0.98L148.37 0.98Q147.79 0.98 146.93 0.93 146.08 0.88 145.32 0.63 144.57 0.39 144.03-0.1 143.49-0.59 143.49-1.42L143.49-1.42Q143.49-2.44 143.91-3.25 144.32-4.05 145-4.69 145.69-5.32 146.54-5.71 147.4-6.1 148.28-6.3L148.28-6.3Q148.62-8.98 148.91-11.65 149.2-14.31 149.3-17.04L149.3-17.04Q149.4-19.82 149.5-22.53 149.59-25.24 149.69-27.98L149.69-27.98Q149.35-27.93 149.06-27.91 148.76-27.88 148.52-27.88L148.52-27.88Q147.84-27.88 147.06-28.03 146.27-28.17 145.59-28.54 144.91-28.91 144.44-29.44 143.98-29.98 143.98-30.81L143.98-30.81Q143.98-32.47 145.37-33.54 146.76-34.62 148.69-35.21 150.62-35.79 152.62-36.01 154.62-36.23 155.84-36.23L155.84-36.23Q156.53-36.23 157.65-36.13 158.77-36.04 159.87-35.69 160.97-35.35 161.78-34.77 162.58-34.18 162.58-33.15ZM177.57-26.86L177.57-26.86Q177.57-25.44 176.62-24.76 175.67-24.07 174.49-23.46 173.32-22.85 172.37-22.02 171.42-21.19 171.42-19.53L171.42-19.53Q171.42-18.65 171.83-18.02 172.25-17.38 172.86-16.87 173.47-16.36 174.2-15.82 174.93-15.28 175.54-14.6 176.15-13.92 176.57-12.94 176.98-11.96 176.98-10.55L176.98-10.55Q176.98-8.5 175.93-6.52 174.88-4.54 173.25-3 171.61-1.46 169.56-0.54 167.51 0.39 165.51 0.39L165.51 0.39Q164.68 0.39 163.85 0.27 163.02 0.15 162.36-0.2 161.7-0.54 161.26-1.15 160.82-1.76 160.82-2.73L160.82-2.73Q160.82-4.1 161.36-4.86 161.9-5.62 162.73-6.05 163.56-6.49 164.51-6.74 165.46-6.98 166.29-7.35 167.12-7.71 167.66-8.3 168.2-8.89 168.2-9.96L168.2-9.96Q168.2-10.99 167.39-12.08 166.58-13.18 165.61-14.43 164.63-15.67 163.83-17.09 163.02-18.51 163.02-20.21L163.02-20.21Q163.02-22.31 163.87-24.1 164.73-25.88 166.17-27.2 167.61-28.52 169.46-29.27 171.32-30.03 173.37-30.03L173.37-30.03Q174.15-30.03 174.91-29.88 175.67-29.74 176.25-29.37 176.84-29 177.2-28.39 177.57-27.78 177.57-26.86ZM188.65-29.59L188.65-29.59Q188.65-26.95 188.43-24.29 188.21-21.63 188.21-18.95L188.21-18.95Q188.21-15.48 188.43-12.01 188.65-8.54 188.65-5.03L188.65-5.03Q188.65-4.15 188.55-3.05 188.46-1.95 188.09-1.03 187.72-0.1 186.99 0.54 186.26 1.17 185.04 1.17L185.04 1.17Q183.87 1.17 183.01 0.02 182.16-1.12 181.6-2.91 181.03-4.69 180.67-6.88 180.3-9.08 180.13-11.16 179.96-13.23 179.89-14.97 179.81-16.7 179.81-17.53L179.81-17.53Q179.81-18.46 179.89-20.21 179.96-21.97 180.2-24.02 180.45-26.07 180.86-28.2 181.28-30.32 181.96-32.06 182.65-33.79 183.6-34.89 184.55-35.99 185.87-35.99L185.87-35.99Q186.94-35.99 187.5-35.28 188.07-34.57 188.31-33.57 188.55-32.57 188.6-31.47 188.65-30.37 188.65-29.59ZM213.11-6.88L213.11-6.88Q213.11-6.01 213.04-4.59 212.97-3.17 212.62-1.83 212.28-0.49 211.55 0.49 210.82 1.46 209.5 1.46L209.5 1.46Q207.69 1.46 206.72 0.29 205.74-0.88 205.79-2.64L205.79-2.64Q204.23-1.27 202.25-0.49 200.27 0.29 198.22 0.29L198.22 0.29Q196.8 0.29 195.53-0.39 194.26-1.07 193.29-2.15 192.31-3.22 191.73-4.57 191.14-5.91 191.14-7.23L191.14-7.23Q191.14-9.57 192.58-11.33 194.02-13.09 196.12-14.33 198.22-15.58 200.59-16.31 202.96-17.04 204.81-17.29L204.81-17.29Q204.81-17.53 204.84-17.72 204.86-17.92 204.86-18.16L204.86-18.16Q204.86-19.68 204.03-20.61 203.2-21.53 201.69-21.53L201.69-21.53Q200.47-21.53 199.59-21.12 198.71-20.7 197.93-20.19 197.15-19.68 196.36-19.26 195.58-18.85 194.61-18.85L194.61-18.85Q193.53-18.85 192.78-19.53 192.02-20.21 192.02-21.29L192.02-21.29Q192.02-22.9 192.97-24.22 193.92-25.54 195.36-26.44 196.8-27.34 198.49-27.86 200.17-28.37 201.59-28.37L201.59-28.37Q202.91-28.37 204.23-28.05 205.54-27.73 206.72-27.08 207.89-26.42 208.84-25.46 209.79-24.51 210.38-23.24L210.38-23.24Q211.26-21.44 211.79-19.41 212.33-17.38 212.62-15.26 212.92-13.13 213.01-11.01 213.11-8.89 213.11-6.88ZM205.3-8.45L205.3-8.45 205.15-11.77Q205.06-11.77 204.96-11.79 204.86-11.82 204.76-11.82L204.76-11.82Q204.13-11.82 203.18-11.5 202.22-11.18 201.34-10.62 200.47-10.06 199.86-9.38 199.25-8.69 199.25-7.96L199.25-7.96Q199.25-7.28 199.73-7.03 200.22-6.79 200.86-6.79L200.86-6.79Q201.93-6.79 203.15-7.35 204.37-7.91 205.3-8.45ZM229.91 1.37L229.91 1.37Q229.08 1.37 228.59 0.61 228.1-0.15 227.86-1.12 227.61-2.1 227.54-3.1 227.47-4.1 227.47-4.64L227.47-4.64Q227.47-6.1 227.64-7.57 227.81-9.03 228.03-10.5 228.25-11.96 228.42-13.43 228.59-14.89 228.59-16.36L228.59-16.36Q228.59-16.94 228.54-17.63 228.49-18.31 228.32-18.92 228.15-19.53 227.76-19.92 227.37-20.31 226.73-20.31L226.73-20.31Q226.29-20.31 225.76-19.6 225.22-18.9 224.76-17.99 224.29-17.09 223.97-16.19 223.66-15.28 223.66-14.84L223.66-14.84Q223.66-13.77 223.68-12.67 223.71-11.57 223.71-10.45L223.71-10.45 223.71-7.62Q223.66-6.74 223.56-5.81 223.46-4.88 223.27-4L223.27-4Q223.12-3.13 222.83-2.32 222.53-1.51 222.07-0.9 221.61-0.29 220.97 0.1 220.34 0.49 219.46 0.49L219.46 0.49Q218.48 0.49 217.85-0.15 217.21-0.78 216.82-1.78 216.43-2.78 216.26-4.03 216.09-5.27 216.02-6.47 215.94-7.67 215.97-8.67 215.99-9.67 215.99-10.25L215.99-10.25 215.99-12.55Q215.99-14.4 215.92-16.21 215.84-18.02 215.84-19.82L215.84-19.82Q215.84-20.8 215.87-22.31 215.89-23.83 216.23-25.27 216.58-26.71 217.36-27.73 218.14-28.76 219.65-28.76L219.65-28.76Q220.34-28.76 220.87-28.32 221.41-27.88 221.83-27.25 222.24-26.61 222.51-25.88 222.78-25.15 222.92-24.61L222.92-24.61Q223.41-25.29 224.07-25.93 224.73-26.56 225.56-27.05 226.39-27.54 227.42-27.83 228.44-28.13 229.76-28.13L229.76-28.13Q232.25-28.13 233.64-26.93 235.03-25.73 235.69-23.95 236.35-22.17 236.5-20.12 236.64-18.07 236.64-16.41L236.64-16.41Q236.64-15.58 236.5-13.94 236.35-12.3 236.03-10.33 235.72-8.35 235.18-6.27 234.64-4.2 233.91-2.49 233.18-0.78 232.18 0.29 231.18 1.37 229.91 1.37ZM260.42-32.13L260.42-32.13Q260.42-28.56 260.15-25.05 259.88-21.53 259.88-17.97L259.88-17.97Q259.88-15.09 260.06-12.26 260.23-9.42 260.23-6.54L260.23-6.54Q260.23-5.76 260.18-4.66 260.13-3.56 259.86-2.54 259.59-1.51 258.98-0.78 258.37-0.05 257.25-0.05L257.25-0.05Q255.78-0.05 254.83-1.15 253.88-2.25 253.63-3.61L253.63-3.61Q252.71-1.86 250.95-0.63 249.19 0.59 247.14 0.59L247.14 0.59Q244.94 0.59 243.36-0.93 241.77-2.44 240.72-4.59 239.67-6.74 239.16-9.08 238.64-11.43 238.64-13.13L238.64-13.13Q238.64-14.36 238.79-15.92 238.94-17.48 239.3-19.09 239.67-20.7 240.26-22.24 240.84-23.78 241.74-25 242.65-26.22 243.89-26.95 245.14-27.69 246.75-27.69L246.75-27.69Q248.51-27.69 250.12-26.66 251.73-25.63 252.56-24.12L252.56-24.12 253-31.88Q253.05-32.81 253.15-34.06 253.24-35.3 253.56-36.43 253.88-37.55 254.56-38.33 255.25-39.11 256.56-39.11L256.56-39.11Q257.98-39.11 258.76-38.43 259.54-37.74 259.91-36.69 260.28-35.64 260.35-34.42 260.42-33.2 260.42-32.13ZM252.46-10.06L252.46-10.45Q252.46-11.57 252.41-12.65 252.37-13.72 252.41-14.84L252.41-14.84Q252.12-15.48 251.73-16.24 251.34-16.99 250.78-17.65 250.22-18.31 249.53-18.75 248.85-19.19 248.07-19.19L248.07-19.19Q247.19-19.19 246.65-18.65 246.12-18.12 245.87-17.36 245.63-16.6 245.55-15.72 245.48-14.84 245.48-14.21L245.48-14.21Q245.48-13.62 245.58-12.48 245.68-11.33 245.94-10.16 246.21-8.98 246.7-8.11 247.19-7.23 248.02-7.23L248.02-7.23Q248.65-7.23 249.29-7.5 249.92-7.76 250.49-8.18 251.05-8.59 251.56-9.11 252.07-9.62 252.46-10.06L252.46-10.06Z" opacity="1" transform="matrix(1,0,0,1,0,0)" fill="black" class="wordmark-text-0" id="SvgjsPath1181" stroke-width="5" stroke="black" stroke-linejoin="round"></path></svg></g></svg></g><g transform="matrix(1,0,0,1,2.5,98.63629487952048)"><svg viewBox="0 0 390.52 33.39228985507246" height="33.39228985507246" width="390.52"><g transform="matrix(1,0,0,1,0,0)"><svg width="390.52" viewBox="-0.7999999523162842 -35.400001525878906 518.4400024414062 45.25" height="33.39228985507246" data-palette-color="#c56e33"><path d="M25.3-16.2L25.3-16.2Q25.3 0 12.5 0L12.5 0 2.2 0 2.2-31.05 12.7-31.05Q19.55-31.05 22.43-27.23 25.3-23.4 25.3-16.2ZM12.35-7.2Q15-7.2 15.78-9.08 16.55-10.95 16.55-15.38 16.55-19.8 15.73-21.65 14.9-23.5 12.2-23.5L12.2-23.5 10.7-23.5 10.7-7.2 12.35-7.2ZM36.25-23.7L36.25 0 28 0 28-23.7 36.25-23.7ZM28.65-25.6Q27.6-26.5 27.6-28.5 27.6-30.5 28.65-31.45 29.7-32.4 32.1-32.4 34.5-32.4 35.55-31.45 36.6-30.5 36.6-28.53 36.6-26.55 35.55-25.63 34.5-24.7 32.1-24.7 29.7-24.7 28.65-25.6ZM38.1-16.88Q38.1-20.5 40.32-22.53 42.55-24.55 46.45-24.55 50.35-24.55 54.34-23.55L54.34-23.55 53.5-16.6Q48.4-17.75 46.65-17.75L46.65-17.75Q45.6-17.75 45.6-16.9L45.6-16.9Q45.6-16.35 46.75-15.9L46.75-15.9Q50.75-14.45 52.77-12.6 54.8-10.75 54.8-7.05 54.8-3.35 52.9-1.43 51 0.5 47.07 0.5 43.15 0.5 39.25-0.5L39.25-0.5 39.8-7.25Q44.8-5.9 46.27-5.9 47.75-5.9 47.75-6.6 47.75-7.3 46.65-7.7L46.65-7.7Q42.2-9.4 40.15-11.33 38.1-13.25 38.1-16.88ZM66.97-17.25Q65.49-17.25 64.99-15.93 64.49-14.6 64.49-11.8 64.49-9 64.97-7.75 65.44-6.5 66.97-6.5 68.49-6.5 70.94-7.05L70.94-7.05 71.84-0.65Q68.39 0.5 65.69 0.5L65.69 0.5Q60.94 0.5 58.52-2.7 56.09-5.9 56.09-11.65 56.09-17.4 58.59-20.98 61.09-24.55 65.84-24.55L65.84-24.55Q69.39-24.55 72.24-23.35L72.24-23.35 71.34-16Q68.44-17.25 66.97-17.25ZM73.34-12.08Q73.34-18.65 75.87-21.6 78.39-24.55 83.77-24.55 89.14-24.55 91.59-21.65 94.04-18.75 94.04-12.13 94.04-5.5 91.64-2.5 89.24 0.5 83.79 0.5 78.34 0.5 75.84-2.5 73.34-5.5 73.34-12.08ZM85.37-16.8Q85.04-17.8 83.74-17.8 82.44-17.8 82.09-16.8 81.74-15.8 81.74-12.6L81.74-12.6 81.74-11.4Q81.74-7.85 82.09-6.8 82.44-5.75 83.72-5.75 84.99-5.75 85.34-6.8 85.69-7.85 85.69-11.1L85.69-11.1 85.69-12.55Q85.69-15.8 85.37-16.8ZM109.04-23.95L117.19-23.95 112.09 0 100.29 0 95.14-23.95 103.94-23.95 106.09-8.6 106.74-8.6 109.04-23.95ZM128.69-17.4L128.69-17.4Q127.39-17.4 126.99-16.53 126.59-15.65 126.59-13.85L126.59-13.85 130.94-13.85 130.94-15.05Q130.94-17.4 128.69-17.4ZM128.89-24.55L128.89-24.55Q134.04-24.55 136.26-22.08 138.49-19.6 138.49-15L138.49-15Q138.49-14.4 138.14-9.6L138.14-9.6 126.74-9.6Q126.74-5.85 130.19-5.85L130.19-5.85Q131.84-5.85 136.64-7L136.64-7 137.34-0.8Q133.14 0.5 128.94 0.5L128.94 0.5Q123.79 0.5 121.04-2.88 118.29-6.25 118.29-12.05L118.29-12.05Q118.29-24.55 128.89-24.55ZM149.08-13.45L149.08-13.45 149.08 0 140.78 0 140.78-23.95 148.08-23.95 148.58-22.5 148.78-22.5Q149.93-23.8 151.11-24.18 152.28-24.55 154.93-24.55L154.93-24.55 154.58-16.55 152.28-16.55Q150.33-16.55 149.71-15.95 149.08-15.35 149.08-13.45ZM188.88-5.75L188.13 0.3 184.78 0.5Q180.93 0.5 180.08-2.05L180.08-2.05 179.83-2.05Q178.18 0.5 174.78 0.5L174.78 0.5Q170.28 0.5 168.45-2.65 166.63-5.8 166.63-12.03 166.63-18.25 168.68-21.4 170.73-24.55 174.58-24.55L174.58-24.55Q177.23-24.55 178.68-23.3L178.68-23.3 178.68-32.05 187.03-32.05 187.03-7.35Q187.03-6.4 187.43-6.08 187.83-5.75 188.88-5.75L188.88-5.75ZM176.8-17.5Q175.73-17.5 175.38-16.23 175.03-14.95 175.03-12.58 175.03-10.2 175.08-9.35 175.13-8.5 175.3-7.63 175.48-6.75 175.85-6.43 176.23-6.1 177.1-6.1 177.98-6.1 178.93-6.55L178.93-6.55 178.93-16.9Q177.88-17.5 176.8-17.5ZM200.78-17.4L200.78-17.4Q199.48-17.4 199.08-16.53 198.68-15.65 198.68-13.85L198.68-13.85 203.03-13.85 203.03-15.05Q203.03-17.4 200.78-17.4ZM200.98-24.55L200.98-24.55Q206.13-24.55 208.35-22.08 210.58-19.6 210.58-15L210.58-15Q210.58-14.4 210.23-9.6L210.23-9.6 198.83-9.6Q198.83-5.85 202.28-5.85L202.28-5.85Q203.93-5.85 208.73-7L208.73-7 209.43-0.8Q205.23 0.5 201.03 0.5L201.03 0.5Q195.88 0.5 193.13-2.88 190.38-6.25 190.38-12.05L190.38-12.05Q190.38-24.55 200.98-24.55ZM211.57-16.88Q211.57-20.5 213.8-22.53 216.02-24.55 219.92-24.55 223.82-24.55 227.82-23.55L227.82-23.55 226.97-16.6Q221.87-17.75 220.12-17.75L220.12-17.75Q219.07-17.75 219.07-16.9L219.07-16.9Q219.07-16.35 220.22-15.9L220.22-15.9Q224.22-14.45 226.25-12.6 228.27-10.75 228.27-7.05 228.27-3.35 226.37-1.43 224.47 0.5 220.55 0.5 216.62 0.5 212.72-0.5L212.72-0.5 213.27-7.25Q218.27-5.9 219.75-5.9 221.22-5.9 221.22-6.6 221.22-7.3 220.12-7.7L220.12-7.7Q215.67-9.4 213.62-11.33 211.57-13.25 211.57-16.88ZM238.42-23.7L238.42 0 230.17 0 230.17-23.7 238.42-23.7ZM230.82-25.6Q229.77-26.5 229.77-28.5 229.77-30.5 230.82-31.45 231.87-32.4 234.27-32.4 236.67-32.4 237.72-31.45 238.77-30.5 238.77-28.53 238.77-26.55 237.72-25.63 236.67-24.7 234.27-24.7 231.87-24.7 230.82-25.6ZM249.87-13.45L249.87-13.45 249.87 0 241.57 0 241.57-23.95 248.87-23.95 249.37-22.5 249.57-22.5Q250.72-23.8 251.89-24.18 253.07-24.55 255.72-24.55L255.72-24.55 255.37-16.55 253.07-16.55Q251.12-16.55 250.49-15.95 249.87-15.35 249.87-13.45ZM267.22-17.4L267.22-17.4Q265.92-17.4 265.52-16.53 265.12-15.65 265.12-13.85L265.12-13.85 269.47-13.85 269.47-15.05Q269.47-17.4 267.22-17.4ZM267.42-24.55L267.42-24.55Q272.57-24.55 274.79-22.08 277.02-19.6 277.02-15L277.02-15Q277.02-14.4 276.67-9.6L276.67-9.6 265.27-9.6Q265.27-5.85 268.72-5.85L268.72-5.85Q270.37-5.85 275.17-7L275.17-7 275.87-0.8Q271.67 0.5 267.47 0.5L267.47 0.5Q262.32 0.5 259.57-2.88 256.82-6.25 256.82-12.05L256.82-12.05Q256.82-24.55 267.42-24.55ZM301.26-5.75L300.51 0.3 297.16 0.5Q293.31 0.5 292.46-2.05L292.46-2.05 292.21-2.05Q290.56 0.5 287.16 0.5L287.16 0.5Q282.66 0.5 280.84-2.65 279.01-5.8 279.01-12.03 279.01-18.25 281.06-21.4 283.11-24.55 286.96-24.55L286.96-24.55Q289.61-24.55 291.06-23.3L291.06-23.3 291.06-32.05 299.41-32.05 299.41-7.35Q299.41-6.4 299.81-6.08 300.21-5.75 301.26-5.75L301.26-5.75ZM289.19-17.5Q288.11-17.5 287.76-16.23 287.41-14.95 287.41-12.58 287.41-10.2 287.46-9.35 287.51-8.5 287.69-7.63 287.86-6.75 288.24-6.43 288.61-6.1 289.49-6.1 290.36-6.1 291.31-6.55L291.31-6.55 291.31-16.9Q290.26-17.5 289.19-17.5ZM330.96-31.05L336.66 0 328.31 0 327.36-4.9 321.46-4.9 320.51 0 312.56 0 318.26-31.05 330.96-31.05ZM322.56-10.75L326.41-10.75 324.66-21.85 324.31-21.85 322.56-10.75ZM348.26-31.05L348.26 0 339.76 0 339.76-31.05 348.26-31.05ZM371.55-0.55L371.35-0.55 371.35 6.85 362.95 6.85 362.95-23.95 369.85-23.95 370.35-22.45 370.6-22.45Q372-24.5 376.1-24.5 380.2-24.5 381.88-21.65 383.55-18.8 383.55-12.3 383.55-5.8 381.78-2.63 380 0.55 375.25 0.55L375.25 0.55Q373.05 0.55 371.55-0.55L371.55-0.55ZM374.88-7.53Q375.05-8.4 375.1-9.25 375.15-10.1 375.15-12.48 375.15-14.85 374.8-16.13 374.45-17.4 373.38-17.4 372.3-17.4 371.25-16.8L371.25-16.8 371.25-6.45Q372.2-6 373.08-6 373.95-6 374.33-6.33 374.7-6.65 374.88-7.53ZM394.55-13.45L394.55-13.45 394.55 0 386.25 0 386.25-23.95 393.55-23.95 394.05-22.5 394.25-22.5Q395.4-23.8 396.57-24.18 397.75-24.55 400.4-24.55L400.4-24.55 400.05-16.55 397.75-16.55Q395.8-16.55 395.17-15.95 394.55-15.35 394.55-13.45ZM401.5-12.08Q401.5-18.65 404.02-21.6 406.55-24.55 411.92-24.55 417.3-24.55 419.75-21.65 422.2-18.75 422.2-12.13 422.2-5.5 419.8-2.5 417.4 0.5 411.95 0.5 406.5 0.5 404-2.5 401.5-5.5 401.5-12.08ZM413.52-16.8Q413.2-17.8 411.9-17.8 410.6-17.8 410.25-16.8 409.9-15.8 409.9-12.6L409.9-12.6 409.9-11.4Q409.9-7.85 410.25-6.8 410.6-5.75 411.87-5.75 413.15-5.75 413.5-6.8 413.85-7.85 413.85-11.1L413.85-11.1 413.85-12.55Q413.85-15.8 413.52-16.8ZM444.59-21.75L445.09-22.2Q447.84-24.55 451.14-24.55 454.44-24.55 455.77-23.03 457.09-21.5 457.09-18.45L457.09-18.45 457.09 0 448.59 0 448.59-15.6Q448.59-16.85 447.49-16.85L447.49-16.85Q446.09-16.85 445.14-16.15L445.14-16.15 445.14 0 436.64 0 436.64-15.6Q436.64-16.85 435.54-16.85L435.54-16.85Q434.14-16.85 433.19-16.15L433.19-16.15 433.19 0 424.79 0 424.79-23.95 432.44-23.95 432.94-22.2 433.14-22.2Q435.89-24.55 439.67-24.55 443.44-24.55 444.59-21.75L444.59-21.75ZM468.69-0.55L468.49-0.55 468.49 6.85 460.09 6.85 460.09-23.95 466.99-23.95 467.49-22.45 467.74-22.45Q469.14-24.5 473.24-24.5 477.34-24.5 479.02-21.65 480.69-18.8 480.69-12.3 480.69-5.8 478.92-2.63 477.14 0.55 472.39 0.55L472.39 0.55Q470.19 0.55 468.69-0.55L468.69-0.55ZM472.02-7.53Q472.19-8.4 472.24-9.25 472.29-10.1 472.29-12.48 472.29-14.85 471.94-16.13 471.59-17.4 470.52-17.4 469.44-17.4 468.39-16.8L468.39-16.8 468.39-6.45Q469.34-6 470.22-6 471.09-6 471.47-6.33 471.84-6.65 472.02-7.53ZM497.14-6.6L496.89 0.05Q493.19 0.5 490.46 0.5 487.74 0.5 486.21-0.93 484.69-2.35 484.69-5.85L484.69-5.85 484.69-17.45 482.29-17.45 482.29-23.65 485.09-23.65 485.54-28.25 493.09-28.25 493.09-23.65 497.54-23.65 497.19-17.45 493.04-17.45 493.04-7.5Q493.04-6.45 494.04-6.45L494.04-6.45Q494.14-6.45 497.14-6.6L497.14-6.6ZM497.94-16.88Q497.94-20.5 500.16-22.53 502.39-24.55 506.29-24.55 510.19-24.55 514.19-23.55L514.19-23.55 513.34-16.6Q508.24-17.75 506.49-17.75L506.49-17.75Q505.44-17.75 505.44-16.9L505.44-16.9Q505.44-16.35 506.59-15.9L506.59-15.9Q510.59-14.45 512.61-12.6 514.64-10.75 514.64-7.05 514.64-3.35 512.74-1.43 510.84 0.5 506.91 0.5 502.99 0.5 499.09-0.5L499.09-0.5 499.64-7.25Q504.64-5.9 506.11-5.9 507.59-5.9 507.59-6.6 507.59-7.3 506.49-7.7L506.49-7.7Q502.04-9.4 499.99-11.33 497.94-13.25 497.94-16.88Z" opacity="1" transform="matrix(1,0,0,1,0,0)" fill="black" class="slogan-text-1" id="SvgjsPath1180" stroke-width="5" stroke="black" stroke-linejoin="round"></path></svg></g></svg></g></svg></g></svg></g><g></g></svg></g></svg></g></svg></g></mask><g mask="url(#2f8c9f3c-bf3f-4c5e-949c-7b374930c64f)"><g><path xmlns="http://www.w3.org/2000/svg" d="M270.207 69.481v0c0 11.236-2.457 22.28-7.369 33.131-4.87 10.852-11.386 20.614-19.546 29.287-8.117 8.673-17.388 15.765-27.813 21.276-10.467 5.511-21.212 8.587-32.234 9.228v0c-0.214 3.76-0.385 8.502-0.513 14.227-0.085 5.725-0.449 11.727-1.089 18.007-0.598 6.238-1.474 12.496-2.628 18.777-1.154 6.238-2.82 11.877-4.998 16.918-2.222 4.999-5.041 9.057-8.459 12.176-3.461 3.119-7.69 4.678-12.689 4.678v0c-5.853 0-10.488-1.923-13.906-5.767-3.461-3.845-6.067-8.48-7.819-13.906-1.794-5.426-2.991-11.108-3.588-17.047-0.641-5.981-1.068-11.044-1.282-15.188v0c-0.427-6.067-0.684-12.026-0.769-17.879-0.128-5.81-0.192-11.749-0.192-17.816v0c0-2.692 0-7.754 0-15.188 0-7.391 0.064-15.829 0.192-25.313 0.085-9.484 0.235-19.396 0.449-29.735 0.214-10.339 0.534-19.93 0.961-28.774 0.427-8.886 0.897-16.448 1.41-22.686 0.513-6.28 1.175-9.933 1.986-10.958v0c0.214-0.214 0.854-0.684 1.923-1.41 1.025-0.726 2.179-1.453 3.46-2.179 1.239-0.726 2.371-1.41 3.397-2.051 1.068-0.641 1.794-1.068 2.179-1.281v0c9.613-5.426 20.165-10.104 31.657-14.035 11.45-3.973 22.814-5.96 34.093-5.959v0c9.57 0 18.264 1.923 26.082 5.767 7.861 3.845 14.547 8.95 20.059 15.316 5.511 6.366 9.741 13.778 12.689 22.237 2.905 8.459 4.358 17.175 4.357 26.147zM216.056 76.658v0c0-4.187-0.983-7.84-2.948-10.958-1.965-3.119-5.255-4.678-9.869-4.678v0c-3.973 0-7.925 0.79-11.855 2.371-3.973 1.538-7.626 3.14-10.959 4.806v0c0.598 7.306 1.175 14.398 1.73 21.276 0.513 6.878 0.555 13.97 0.129 21.276v0c3.332-1.666 6.985-3.589 10.958-5.767 3.973-2.179 7.626-4.635 10.958-7.37 3.332-2.692 6.152-5.768 8.46-9.228 2.264-3.418 3.396-7.327 3.396-11.728z" fill="#000000" fill-rule="nonzero" stroke="none" stroke-width="1" stroke-linecap="butt" stroke-linejoin="miter" stroke-miterlimit="10" stroke-dasharray="" stroke-dashoffset="0" font-family="none" font-weight="none" font-size="none" text-anchor="none" style="mix-blend-mode: normal" data-fill-palette-color="tertiary"></path></g></g><g transform="matrix(1,0,0,1,0,57.58570763270353)"><svg viewBox="0 0 395.52 132.02858473459293" height="132.02858473459293" width="395.52"><g><svg viewBox="0 0 395.52 132.02858473459293" height="132.02858473459293" width="395.52"><g><svg viewBox="0 0 395.52 132.02858473459293" height="132.02858473459293" width="395.52"><g><svg viewBox="0 0 395.52 132.02858473459293" height="132.02858473459293" width="395.52"><g id="textblocktransform"><svg viewBox="0 0 395.52 132.02858473459293" height="132.02858473459293" width="395.52" id="textblock"><g><svg viewBox="0 0 395.52 87.0299123099123" height="87.0299123099123" width="395.52"><g transform="matrix(1,0,0,1,0,0)"><svg width="395.52" viewBox="-1.4900000095367432 -42.11000061035156 264.9100036621094 59.06999969482422" height="87.0299123099123" data-palette-color="#e6b17e"><path d="M24.12-26.17L24.12-26.17Q24.12-23.54 22.97-21 21.83-18.46 19.92-16.43 18.02-14.4 15.58-13.11 13.13-11.82 10.55-11.67L10.55-11.67Q10.5-10.79 10.47-9.45 10.45-8.11 10.3-6.64 10.16-5.18 9.89-3.71 9.62-2.25 9.11-1.07 8.59 0.1 7.79 0.83 6.98 1.56 5.81 1.56L5.81 1.56Q4.44 1.56 3.64 0.66 2.83-0.24 2.42-1.51 2-2.78 1.86-4.17 1.71-5.57 1.66-6.54L1.66-6.54Q1.56-7.96 1.54-9.33 1.51-10.69 1.51-12.11L1.51-12.11Q1.51-12.74 1.51-14.48 1.51-16.21 1.54-18.43 1.56-20.65 1.61-23.07 1.66-25.49 1.76-27.56 1.86-29.64 1.98-31.1 2.1-32.57 2.29-32.81L2.29-32.81Q2.34-32.86 2.59-33.03 2.83-33.2 3.13-33.37 3.42-33.54 3.66-33.69 3.91-33.84 4-33.89L4-33.89Q6.25-35.16 8.94-36.08 11.62-37.01 14.26-37.01L14.26-37.01Q16.5-37.01 18.33-36.11 20.17-35.21 21.46-33.72 22.75-32.23 23.44-30.25 24.12-28.27 24.12-26.17ZM15.67-25.05L15.67-25.05Q15.67-26.03 15.21-26.76 14.75-27.49 13.67-27.49L13.67-27.49Q12.74-27.49 11.82-27.12 10.89-26.76 10.11-26.37L10.11-26.37Q10.25-24.66 10.38-23.05 10.5-21.44 10.4-19.73L10.4-19.73Q11.18-20.12 12.11-20.63 13.04-21.14 13.82-21.78 14.6-22.41 15.14-23.22 15.67-24.02 15.67-25.05ZM42.23-18.26L42.23-18.26Q41.55-18.21 41.06-18.38 40.57-18.55 40.09-18.75L40.09-18.75Q39.65-18.95 39.21-19.12 38.77-19.29 38.23-19.24L38.23-19.24Q37.25-19.19 36.5-18.7 35.74-18.21 35.13-17.48 34.52-16.75 34.08-15.84 33.64-14.94 33.4-14.06L33.4-14.06Q33.25-13.48 33.18-12.28 33.1-11.08 33.1-9.72L33.1-9.72Q33.05-8.3 33.05-7.03 33.05-5.76 32.96-5.03L32.96-5.03Q32.91-4.25 32.71-3.2 32.52-2.15 32.1-1.22 31.69-0.29 31 0.34 30.32 0.98 29.25 0.98L29.25 0.98Q28.42 0.98 27.81 0.49 27.19 0 26.78-0.81 26.36-1.61 26.1-2.69 25.83-3.76 25.68-4.88L25.68-4.88Q25.53-6.05 25.46-7.23 25.39-8.4 25.36-9.45 25.34-10.5 25.36-11.38 25.39-12.26 25.39-12.79L25.39-12.79Q25.34-14.5 25.22-16.24 25.1-17.97 25.1-19.68L25.1-19.68Q25.1-20.75 25.19-22.07 25.29-23.39 25.73-24.54 26.17-25.68 27.02-26.46 27.88-27.25 29.39-27.25L29.39-27.25Q30.22-27.25 30.81-26.71 31.39-26.17 31.76-25.39 32.13-24.61 32.32-23.73 32.52-22.85 32.57-22.12L32.57-22.12Q33.74-24.02 35.2-25.22 36.67-26.42 39.01-26.51L39.01-26.51Q40.18-26.56 41.33-26.29 42.48-26.03 43.43-25.42 44.38-24.8 44.99-23.83 45.6-22.85 45.65-21.53L45.65-21.53Q45.75-19.97 44.72-19.14 43.7-18.31 42.23-18.26ZM55.66 1.42L55.66 1.42Q53.17 1.42 51.31 0.1 49.46-1.22 48.19-3.27 46.92-5.32 46.28-7.84 45.65-10.35 45.65-12.79L45.65-12.79Q45.65-15.38 46.28-18.14 46.92-20.9 48.24-23.17 49.56-25.44 51.61-26.88 53.66-28.32 56.49-28.32L56.49-28.32Q59.22-28.32 61.15-26.83 63.08-25.34 64.25-23.12 65.42-20.9 65.91-18.26 66.4-15.63 66.25-13.28L66.25-13.28Q66.11-10.69 65.45-8.06 64.79-5.42 63.52-3.32 62.25-1.22 60.3 0.1 58.34 1.42 55.66 1.42ZM56.15-20.65L56.15-20.65Q55.41-20.65 54.85-19.87 54.29-19.09 53.93-17.97 53.56-16.85 53.36-15.6 53.17-14.36 53.17-13.43L53.17-13.43Q53.17-12.26 53.39-10.89 53.61-9.52 54-8.37 54.39-7.23 54.95-6.47 55.51-5.71 56.25-5.71L56.25-5.71Q57.03-5.71 57.59-6.45 58.15-7.18 58.49-8.3 58.83-9.42 58.98-10.77 59.13-12.11 59.13-13.28L59.13-13.28Q59.13-14.36 58.93-15.65 58.74-16.94 58.37-18.07 58-19.19 57.44-19.92 56.88-20.65 56.15-20.65ZM98.38-16.11L98.38-16.11Q98.38-15.19 98.38-13.6 98.38-12.01 98.31-10.16 98.23-8.3 97.99-6.42 97.75-4.54 97.23-3.03 96.72-1.51 95.94-0.54 95.16 0.44 93.94 0.44L93.94 0.44Q92.86 0.44 92.3-0.46 91.74-1.37 91.5-2.59 91.25-3.81 91.23-5.08 91.2-6.35 91.2-7.08L91.2-7.08Q91.2-9.28 91.35-11.38 91.5-13.48 91.5-15.67L91.5-15.67Q91.5-15.92 91.5-16.55 91.5-17.19 91.4-17.82 91.3-18.46 91.08-18.95 90.86-19.43 90.42-19.43L90.42-19.43Q89.54-19.43 89.01-18.53 88.47-17.63 88.13-16.41 87.79-15.19 87.64-13.99 87.49-12.79 87.44-12.21L87.44-12.21Q87.35-11.57 87.27-10.3 87.2-9.03 87.08-7.52 86.96-6.01 86.69-4.42 86.42-2.83 86-1.54 85.59-0.24 84.95 0.59 84.32 1.42 83.39 1.42L83.39 1.42Q82.22 1.42 81.58 0.39 80.95-0.63 80.66-2 80.36-3.37 80.29-4.79 80.22-6.2 80.22-6.98L80.22-6.98Q80.22-7.81 80.24-8.59 80.27-9.38 80.27-10.21L80.27-10.21Q80.27-10.55 80.27-11.33 80.27-12.11 80.24-13.06 80.22-14.01 80.14-15.04 80.07-16.06 79.92-16.92 79.78-17.77 79.48-18.31 79.19-18.85 78.8-18.85L78.8-18.85Q78.17-18.85 77.63-18.04 77.09-17.24 76.7-16.14 76.31-15.04 76.09-13.96 75.87-12.89 75.87-12.4L75.87-12.4 75.87-12.11Q75.87-9.77 76.16-7.52 76.46-5.27 76.46-2.93L76.46-2.93Q76.46-1.56 75.58-0.42 74.7 0.73 73.14 0.73L73.14 0.73Q72.01 0.73 71.28-0.12 70.55-0.98 70.06-2.34 69.57-3.71 69.3-5.35 69.04-6.98 68.94-8.57 68.84-10.16 68.82-11.45 68.79-12.74 68.79-13.38L68.79-13.38Q68.79-14.11 68.77-15.53 68.74-16.94 68.82-18.6 68.89-20.26 69.08-22 69.28-23.73 69.72-25.15 70.16-26.56 70.87-27.47 71.57-28.37 72.7-28.37L72.7-28.37Q73.97-28.37 74.77-27.69 75.58-27 75.58-25.63L75.58-25.63Q75.58-25.34 75.55-25.05 75.53-24.76 75.48-24.51L75.48-24.51Q76.02-25.29 76.8-26.1 77.58-26.9 78.48-27.56 79.39-28.22 80.41-28.64 81.44-29.05 82.46-29.05L82.46-29.05Q83.44-29.05 84.22-28.52 85-27.98 85.59-27.17 86.17-26.37 86.56-25.44 86.96-24.51 87.1-23.68L87.1-23.68Q87.59-24.56 88.3-25.46 89.01-26.37 89.84-27.05 90.67-27.73 91.67-28.17 92.67-28.61 93.74-28.61L93.74-28.61Q94.77-28.61 95.5-27.88 96.23-27.15 96.77-26 97.31-24.85 97.6-23.41 97.89-21.97 98.09-20.58 98.28-19.19 98.33-17.99 98.38-16.8 98.38-16.11ZM123.96-14.55L123.96-14.55Q123.96-12.4 123.5-9.84 123.04-7.28 121.94-5.08 120.84-2.88 119.06-1.42 117.28 0.05 114.59 0.05L114.59 0.05Q113.91 0.05 113.17-0.05 112.44-0.15 111.78-0.39 111.12-0.63 110.59-1.05 110.05-1.46 109.76-2.15L109.76-2.15 109.32 4.88Q109.27 6.01 109.24 7.57 109.22 9.13 108.85 10.55 108.49 11.96 107.63 12.96 106.78 13.96 105.17 13.96L105.17 13.96Q104.24 13.96 103.6 13.01 102.97 12.06 102.6 10.6 102.24 9.13 102.04 7.32 101.85 5.52 101.8 3.86 101.75 2.2 101.75 0.83 101.75-0.54 101.75-1.17L101.75-1.17Q101.75-4.44 101.7-7.69 101.65-10.94 101.65-14.21L101.65-14.21Q101.65-14.79 101.65-16.04 101.65-17.29 101.75-18.75 101.85-20.21 102.07-21.78 102.28-23.34 102.72-24.63 103.16-25.93 103.85-26.73 104.53-27.54 105.51-27.54L105.51-27.54Q106.14-27.54 106.66-27.17 107.17-26.81 107.53-26.25 107.9-25.68 108.14-25.05 108.39-24.41 108.53-23.88L108.53-23.88Q110.05-25.59 112.03-26.46 114-27.34 116.25-27.34L116.25-27.34Q118.59-27.34 120.08-26.03 121.57-24.71 122.43-22.75 123.28-20.8 123.62-18.58 123.96-16.36 123.96-14.55ZM116.98-14.94L116.98-14.94Q116.98-15.67 116.86-16.43 116.74-17.19 116.42-17.85 116.1-18.51 115.52-18.92 114.93-19.34 114.05-19.34L114.05-19.34Q112.88-19.34 111.59-18.58 110.29-17.82 109.66-16.85L109.66-16.85Q109.41-16.46 109.37-15.58 109.32-14.7 109.32-14.26L109.32-14.26Q109.32-13.92 109.34-13.35 109.37-12.79 109.41-12.21 109.46-11.62 109.54-11.08 109.61-10.55 109.76-10.25L109.76-10.25Q109.9-9.81 110.39-9.45 110.88-9.08 111.46-8.79 112.05-8.5 112.66-8.35 113.27-8.2 113.71-8.2L113.71-8.2Q114.74-8.2 115.37-8.98 116.01-9.77 116.37-10.84 116.74-11.91 116.86-13.06 116.98-14.21 116.98-14.94ZM138.32 1.76L138.32 1.76Q134.85 1.76 132.92 0.85 130.99-0.05 130.04-1.71 129.09-3.37 128.89-5.71 128.7-8.06 128.7-10.94L128.7-10.94Q128.7-13.23 128.84-15.55 128.99-17.87 129.28-20.51L129.28-20.51Q128.6-20.51 128.21-20.48 127.82-20.46 127.58-20.46L127.58-20.46Q126.01-20.46 124.87-21.14 123.72-21.83 123.72-23.24L123.72-23.24Q123.72-24.12 124.38-24.8 125.04-25.49 126.06-25.98 127.09-26.46 128.28-26.76 129.48-27.05 130.55-27.15L130.55-27.15Q130.55-28.52 130.75-30.18 130.94-31.84 131.46-33.28 131.97-34.72 132.85-35.69 133.73-36.67 135.09-36.67L135.09-36.67Q135.88-36.67 136.49-36.21 137.1-35.74 137.49-35.03 137.88-34.33 138.07-33.45 138.27-32.57 138.27-31.74L138.27-31.74Q138.27-30.76 138.12-29.74 137.98-28.71 137.59-27.2L137.59-27.2Q138.42-27.29 138.71-27.32 139-27.34 139.25-27.34L139.25-27.34Q140.08-27.34 140.98-27.2 141.88-27.05 142.64-26.71 143.4-26.37 143.88-25.81 144.37-25.24 144.37-24.46L144.37-24.46Q144.37-23.58 143.66-22.9 142.96-22.22 141.88-21.73 140.81-21.24 139.59-20.97 138.37-20.7 137.29-20.61L137.29-20.61Q137-18.6 136.88-16.92 136.76-15.23 136.61-13.53L136.61-13.53Q136.51-12.7 136.44-11.84 136.36-10.99 136.36-10.11L136.36-10.11Q136.36-9.47 136.41-8.62 136.46-7.76 136.76-6.98 137.05-6.2 137.68-5.64 138.32-5.08 139.44-5.08L139.44-5.08Q140.12-5.08 140.86-5.2 141.59-5.32 142.32-5.32L142.32-5.32Q143.59-5.32 144.15-4.44 144.71-3.56 144.71-2.2L144.71-2.2Q144.71-1.17 144.1-0.42 143.49 0.34 142.57 0.81 141.64 1.27 140.49 1.51 139.34 1.76 138.32 1.76ZM162.58-33.15L162.58-33.15Q162.58-32.23 162.17-31.49 161.75-30.76 161.07-30.25 160.39-29.74 159.56-29.39 158.73-29.05 157.94-28.91L157.94-28.91Q157.85-23.39 157.53-18.26 157.21-13.13 156.53-7.67L156.53-7.67 156.82-7.67Q157.6-7.67 158.36-7.5 159.12-7.32 159.73-6.91 160.34-6.49 160.7-5.88 161.07-5.27 161.07-4.39L161.07-4.39Q161.07-3.27 160.36-2.44 159.65-1.61 158.51-1.03 157.36-0.44 155.94-0.05 154.53 0.34 153.11 0.56 151.69 0.78 150.42 0.88 149.15 0.98 148.37 0.98L148.37 0.98Q147.79 0.98 146.93 0.93 146.08 0.88 145.32 0.63 144.57 0.39 144.03-0.1 143.49-0.59 143.49-1.42L143.49-1.42Q143.49-2.44 143.91-3.25 144.32-4.05 145-4.69 145.69-5.32 146.54-5.71 147.4-6.1 148.28-6.3L148.28-6.3Q148.62-8.98 148.91-11.65 149.2-14.31 149.3-17.04L149.3-17.04Q149.4-19.82 149.5-22.53 149.59-25.24 149.69-27.98L149.69-27.98Q149.35-27.93 149.06-27.91 148.76-27.88 148.52-27.88L148.52-27.88Q147.84-27.88 147.06-28.03 146.27-28.17 145.59-28.54 144.91-28.91 144.44-29.44 143.98-29.98 143.98-30.81L143.98-30.81Q143.98-32.47 145.37-33.54 146.76-34.62 148.69-35.21 150.62-35.79 152.62-36.01 154.62-36.23 155.84-36.23L155.84-36.23Q156.53-36.23 157.65-36.13 158.77-36.04 159.87-35.69 160.97-35.35 161.78-34.77 162.58-34.18 162.58-33.15ZM177.57-26.86L177.57-26.86Q177.57-25.44 176.62-24.76 175.67-24.07 174.49-23.46 173.32-22.85 172.37-22.02 171.42-21.19 171.42-19.53L171.42-19.53Q171.42-18.65 171.83-18.02 172.25-17.38 172.86-16.87 173.47-16.36 174.2-15.82 174.93-15.28 175.54-14.6 176.15-13.92 176.57-12.94 176.98-11.96 176.98-10.55L176.98-10.55Q176.98-8.5 175.93-6.52 174.88-4.54 173.25-3 171.61-1.46 169.56-0.54 167.51 0.39 165.51 0.39L165.51 0.39Q164.68 0.39 163.85 0.27 163.02 0.15 162.36-0.2 161.7-0.54 161.26-1.15 160.82-1.76 160.82-2.73L160.82-2.73Q160.82-4.1 161.36-4.86 161.9-5.62 162.73-6.05 163.56-6.49 164.51-6.74 165.46-6.98 166.29-7.35 167.12-7.71 167.66-8.3 168.2-8.89 168.2-9.96L168.2-9.96Q168.2-10.99 167.39-12.08 166.58-13.18 165.61-14.43 164.63-15.67 163.83-17.09 163.02-18.51 163.02-20.21L163.02-20.21Q163.02-22.31 163.87-24.1 164.73-25.88 166.17-27.2 167.61-28.52 169.46-29.27 171.32-30.03 173.37-30.03L173.37-30.03Q174.15-30.03 174.91-29.88 175.67-29.74 176.25-29.37 176.84-29 177.2-28.39 177.57-27.78 177.57-26.86ZM188.65-29.59L188.65-29.59Q188.65-26.95 188.43-24.29 188.21-21.63 188.21-18.95L188.21-18.95Q188.21-15.48 188.43-12.01 188.65-8.54 188.65-5.03L188.65-5.03Q188.65-4.15 188.55-3.05 188.46-1.95 188.09-1.03 187.72-0.1 186.99 0.54 186.26 1.17 185.04 1.17L185.04 1.17Q183.87 1.17 183.01 0.02 182.16-1.12 181.6-2.91 181.03-4.69 180.67-6.88 180.3-9.08 180.13-11.16 179.96-13.23 179.89-14.97 179.81-16.7 179.81-17.53L179.81-17.53Q179.81-18.46 179.89-20.21 179.96-21.97 180.2-24.02 180.45-26.07 180.86-28.2 181.28-30.32 181.96-32.06 182.65-33.79 183.6-34.89 184.55-35.99 185.87-35.99L185.87-35.99Q186.94-35.99 187.5-35.28 188.07-34.57 188.31-33.57 188.55-32.57 188.6-31.47 188.65-30.37 188.65-29.59ZM213.11-6.88L213.11-6.88Q213.11-6.01 213.04-4.59 212.97-3.17 212.62-1.83 212.28-0.49 211.55 0.49 210.82 1.46 209.5 1.46L209.5 1.46Q207.69 1.46 206.72 0.29 205.74-0.88 205.79-2.64L205.79-2.64Q204.23-1.27 202.25-0.49 200.27 0.29 198.22 0.29L198.22 0.29Q196.8 0.29 195.53-0.39 194.26-1.07 193.29-2.15 192.31-3.22 191.73-4.57 191.14-5.91 191.14-7.23L191.14-7.23Q191.14-9.57 192.58-11.33 194.02-13.09 196.12-14.33 198.22-15.58 200.59-16.31 202.96-17.04 204.81-17.29L204.81-17.29Q204.81-17.53 204.84-17.72 204.86-17.92 204.86-18.16L204.86-18.16Q204.86-19.68 204.03-20.61 203.2-21.53 201.69-21.53L201.69-21.53Q200.47-21.53 199.59-21.12 198.71-20.7 197.93-20.19 197.15-19.68 196.36-19.26 195.58-18.85 194.61-18.85L194.61-18.85Q193.53-18.85 192.78-19.53 192.02-20.21 192.02-21.29L192.02-21.29Q192.02-22.9 192.97-24.22 193.92-25.54 195.36-26.44 196.8-27.34 198.49-27.86 200.17-28.37 201.59-28.37L201.59-28.37Q202.91-28.37 204.23-28.05 205.54-27.73 206.72-27.08 207.89-26.42 208.84-25.46 209.79-24.51 210.38-23.24L210.38-23.24Q211.26-21.44 211.79-19.41 212.33-17.38 212.62-15.26 212.92-13.13 213.01-11.01 213.11-8.89 213.11-6.88ZM205.3-8.45L205.3-8.45 205.15-11.77Q205.06-11.77 204.96-11.79 204.86-11.82 204.76-11.82L204.76-11.82Q204.13-11.82 203.18-11.5 202.22-11.18 201.34-10.62 200.47-10.06 199.86-9.38 199.25-8.69 199.25-7.96L199.25-7.96Q199.25-7.28 199.73-7.03 200.22-6.79 200.86-6.79L200.86-6.79Q201.93-6.79 203.15-7.35 204.37-7.91 205.3-8.45ZM229.91 1.37L229.91 1.37Q229.08 1.37 228.59 0.61 228.1-0.15 227.86-1.12 227.61-2.1 227.54-3.1 227.47-4.1 227.47-4.64L227.47-4.64Q227.47-6.1 227.64-7.57 227.81-9.03 228.03-10.5 228.25-11.96 228.42-13.43 228.59-14.89 228.59-16.36L228.59-16.36Q228.59-16.94 228.54-17.63 228.49-18.31 228.32-18.92 228.15-19.53 227.76-19.92 227.37-20.31 226.73-20.31L226.73-20.31Q226.29-20.31 225.76-19.6 225.22-18.9 224.76-17.99 224.29-17.09 223.97-16.19 223.66-15.28 223.66-14.84L223.66-14.84Q223.66-13.77 223.68-12.67 223.71-11.57 223.71-10.45L223.71-10.45 223.71-7.62Q223.66-6.74 223.56-5.81 223.46-4.88 223.27-4L223.27-4Q223.12-3.13 222.83-2.32 222.53-1.51 222.07-0.9 221.61-0.29 220.97 0.1 220.34 0.49 219.46 0.49L219.46 0.49Q218.48 0.49 217.85-0.15 217.21-0.78 216.82-1.78 216.43-2.78 216.26-4.03 216.09-5.27 216.02-6.47 215.94-7.67 215.97-8.67 215.99-9.67 215.99-10.25L215.99-10.25 215.99-12.55Q215.99-14.4 215.92-16.21 215.84-18.02 215.84-19.82L215.84-19.82Q215.84-20.8 215.87-22.31 215.89-23.83 216.23-25.27 216.58-26.71 217.36-27.73 218.14-28.76 219.65-28.76L219.65-28.76Q220.34-28.76 220.87-28.32 221.41-27.88 221.83-27.25 222.24-26.61 222.51-25.88 222.78-25.15 222.92-24.61L222.92-24.61Q223.41-25.29 224.07-25.93 224.73-26.56 225.56-27.05 226.39-27.54 227.42-27.83 228.44-28.13 229.76-28.13L229.76-28.13Q232.25-28.13 233.64-26.93 235.03-25.73 235.69-23.95 236.35-22.17 236.5-20.12 236.64-18.07 236.64-16.41L236.64-16.41Q236.64-15.58 236.5-13.94 236.35-12.3 236.03-10.33 235.72-8.35 235.18-6.27 234.64-4.2 233.91-2.49 233.18-0.78 232.18 0.29 231.18 1.37 229.91 1.37ZM260.42-32.13L260.42-32.13Q260.42-28.56 260.15-25.05 259.88-21.53 259.88-17.97L259.88-17.97Q259.88-15.09 260.06-12.26 260.23-9.42 260.23-6.54L260.23-6.54Q260.23-5.76 260.18-4.66 260.13-3.56 259.86-2.54 259.59-1.51 258.98-0.78 258.37-0.05 257.25-0.05L257.25-0.05Q255.78-0.05 254.83-1.15 253.88-2.25 253.63-3.61L253.63-3.61Q252.71-1.86 250.95-0.63 249.19 0.59 247.14 0.59L247.14 0.59Q244.94 0.59 243.36-0.93 241.77-2.44 240.72-4.59 239.67-6.74 239.16-9.08 238.64-11.43 238.64-13.13L238.64-13.13Q238.64-14.36 238.79-15.92 238.94-17.48 239.3-19.09 239.67-20.7 240.26-22.24 240.84-23.78 241.74-25 242.65-26.22 243.89-26.95 245.14-27.69 246.75-27.69L246.75-27.69Q248.51-27.69 250.12-26.66 251.73-25.63 252.56-24.12L252.56-24.12 253-31.88Q253.05-32.81 253.15-34.06 253.24-35.3 253.56-36.43 253.88-37.55 254.56-38.33 255.25-39.11 256.56-39.11L256.56-39.11Q257.98-39.11 258.76-38.43 259.54-37.74 259.91-36.69 260.28-35.64 260.35-34.42 260.42-33.2 260.42-32.13ZM252.46-10.06L252.46-10.45Q252.46-11.57 252.41-12.65 252.37-13.72 252.41-14.84L252.41-14.84Q252.12-15.48 251.73-16.24 251.34-16.99 250.78-17.65 250.22-18.31 249.53-18.75 248.85-19.19 248.07-19.19L248.07-19.19Q247.19-19.19 246.65-18.65 246.12-18.12 245.87-17.36 245.63-16.6 245.55-15.72 245.48-14.84 245.48-14.21L245.48-14.21Q245.48-13.62 245.58-12.48 245.68-11.33 245.94-10.16 246.21-8.98 246.7-8.11 247.19-7.23 248.02-7.23L248.02-7.23Q248.65-7.23 249.29-7.5 249.92-7.76 250.49-8.18 251.05-8.59 251.56-9.11 252.07-9.62 252.46-10.06L252.46-10.06Z" opacity="1" transform="matrix(1,0,0,1,0,0)" fill="#000000" class="wordmark-text-0" data-fill-palette-color="primary" id="text-0"></path></svg></g></svg></g><g transform="matrix(1,0,0,1,2.5,98.63629487952048)"><svg viewBox="0 0 390.52 33.39228985507246" height="33.39228985507246" width="390.52"><g transform="matrix(1,0,0,1,0,0)"><svg width="390.52" viewBox="-0.7999999523162842 -35.400001525878906 518.4400024414062 45.25" height="33.39228985507246" data-palette-color="#c56e33"><path d="M25.3-16.2L25.3-16.2Q25.3 0 12.5 0L12.5 0 2.2 0 2.2-31.05 12.7-31.05Q19.55-31.05 22.43-27.23 25.3-23.4 25.3-16.2ZM12.35-7.2Q15-7.2 15.78-9.08 16.55-10.95 16.55-15.38 16.55-19.8 15.73-21.65 14.9-23.5 12.2-23.5L12.2-23.5 10.7-23.5 10.7-7.2 12.35-7.2ZM36.25-23.7L36.25 0 28 0 28-23.7 36.25-23.7ZM28.65-25.6Q27.6-26.5 27.6-28.5 27.6-30.5 28.65-31.45 29.7-32.4 32.1-32.4 34.5-32.4 35.55-31.45 36.6-30.5 36.6-28.53 36.6-26.55 35.55-25.63 34.5-24.7 32.1-24.7 29.7-24.7 28.65-25.6ZM38.1-16.88Q38.1-20.5 40.32-22.53 42.55-24.55 46.45-24.55 50.35-24.55 54.34-23.55L54.34-23.55 53.5-16.6Q48.4-17.75 46.65-17.75L46.65-17.75Q45.6-17.75 45.6-16.9L45.6-16.9Q45.6-16.35 46.75-15.9L46.75-15.9Q50.75-14.45 52.77-12.6 54.8-10.75 54.8-7.05 54.8-3.35 52.9-1.43 51 0.5 47.07 0.5 43.15 0.5 39.25-0.5L39.25-0.5 39.8-7.25Q44.8-5.9 46.27-5.9 47.75-5.9 47.75-6.6 47.75-7.3 46.65-7.7L46.65-7.7Q42.2-9.4 40.15-11.33 38.1-13.25 38.1-16.88ZM66.97-17.25Q65.49-17.25 64.99-15.93 64.49-14.6 64.49-11.8 64.49-9 64.97-7.75 65.44-6.5 66.97-6.5 68.49-6.5 70.94-7.05L70.94-7.05 71.84-0.65Q68.39 0.5 65.69 0.5L65.69 0.5Q60.94 0.5 58.52-2.7 56.09-5.9 56.09-11.65 56.09-17.4 58.59-20.98 61.09-24.55 65.84-24.55L65.84-24.55Q69.39-24.55 72.24-23.35L72.24-23.35 71.34-16Q68.44-17.25 66.97-17.25ZM73.34-12.08Q73.34-18.65 75.87-21.6 78.39-24.55 83.77-24.55 89.14-24.55 91.59-21.65 94.04-18.75 94.04-12.13 94.04-5.5 91.64-2.5 89.24 0.5 83.79 0.5 78.34 0.5 75.84-2.5 73.34-5.5 73.34-12.08ZM85.37-16.8Q85.04-17.8 83.74-17.8 82.44-17.8 82.09-16.8 81.74-15.8 81.74-12.6L81.74-12.6 81.74-11.4Q81.74-7.85 82.09-6.8 82.44-5.75 83.72-5.75 84.99-5.75 85.34-6.8 85.69-7.85 85.69-11.1L85.69-11.1 85.69-12.55Q85.69-15.8 85.37-16.8ZM109.04-23.95L117.19-23.95 112.09 0 100.29 0 95.14-23.95 103.94-23.95 106.09-8.6 106.74-8.6 109.04-23.95ZM128.69-17.4L128.69-17.4Q127.39-17.4 126.99-16.53 126.59-15.65 126.59-13.85L126.59-13.85 130.94-13.85 130.94-15.05Q130.94-17.4 128.69-17.4ZM128.89-24.55L128.89-24.55Q134.04-24.55 136.26-22.08 138.49-19.6 138.49-15L138.49-15Q138.49-14.4 138.14-9.6L138.14-9.6 126.74-9.6Q126.74-5.85 130.19-5.85L130.19-5.85Q131.84-5.85 136.64-7L136.64-7 137.34-0.8Q133.14 0.5 128.94 0.5L128.94 0.5Q123.79 0.5 121.04-2.88 118.29-6.25 118.29-12.05L118.29-12.05Q118.29-24.55 128.89-24.55ZM149.08-13.45L149.08-13.45 149.08 0 140.78 0 140.78-23.95 148.08-23.95 148.58-22.5 148.78-22.5Q149.93-23.8 151.11-24.18 152.28-24.55 154.93-24.55L154.93-24.55 154.58-16.55 152.28-16.55Q150.33-16.55 149.71-15.95 149.08-15.35 149.08-13.45ZM188.88-5.75L188.13 0.3 184.78 0.5Q180.93 0.5 180.08-2.05L180.08-2.05 179.83-2.05Q178.18 0.5 174.78 0.5L174.78 0.5Q170.28 0.5 168.45-2.65 166.63-5.8 166.63-12.03 166.63-18.25 168.68-21.4 170.73-24.55 174.58-24.55L174.58-24.55Q177.23-24.55 178.68-23.3L178.68-23.3 178.68-32.05 187.03-32.05 187.03-7.35Q187.03-6.4 187.43-6.08 187.83-5.75 188.88-5.75L188.88-5.75ZM176.8-17.5Q175.73-17.5 175.38-16.23 175.03-14.95 175.03-12.58 175.03-10.2 175.08-9.35 175.13-8.5 175.3-7.63 175.48-6.75 175.85-6.43 176.23-6.1 177.1-6.1 177.98-6.1 178.93-6.55L178.93-6.55 178.93-16.9Q177.88-17.5 176.8-17.5ZM200.78-17.4L200.78-17.4Q199.48-17.4 199.08-16.53 198.68-15.65 198.68-13.85L198.68-13.85 203.03-13.85 203.03-15.05Q203.03-17.4 200.78-17.4ZM200.98-24.55L200.98-24.55Q206.13-24.55 208.35-22.08 210.58-19.6 210.58-15L210.58-15Q210.58-14.4 210.23-9.6L210.23-9.6 198.83-9.6Q198.83-5.85 202.28-5.85L202.28-5.85Q203.93-5.85 208.73-7L208.73-7 209.43-0.8Q205.23 0.5 201.03 0.5L201.03 0.5Q195.88 0.5 193.13-2.88 190.38-6.25 190.38-12.05L190.38-12.05Q190.38-24.55 200.98-24.55ZM211.57-16.88Q211.57-20.5 213.8-22.53 216.02-24.55 219.92-24.55 223.82-24.55 227.82-23.55L227.82-23.55 226.97-16.6Q221.87-17.75 220.12-17.75L220.12-17.75Q219.07-17.75 219.07-16.9L219.07-16.9Q219.07-16.35 220.22-15.9L220.22-15.9Q224.22-14.45 226.25-12.6 228.27-10.75 228.27-7.05 228.27-3.35 226.37-1.43 224.47 0.5 220.55 0.5 216.62 0.5 212.72-0.5L212.72-0.5 213.27-7.25Q218.27-5.9 219.75-5.9 221.22-5.9 221.22-6.6 221.22-7.3 220.12-7.7L220.12-7.7Q215.67-9.4 213.62-11.33 211.57-13.25 211.57-16.88ZM238.42-23.7L238.42 0 230.17 0 230.17-23.7 238.42-23.7ZM230.82-25.6Q229.77-26.5 229.77-28.5 229.77-30.5 230.82-31.45 231.87-32.4 234.27-32.4 236.67-32.4 237.72-31.45 238.77-30.5 238.77-28.53 238.77-26.55 237.72-25.63 236.67-24.7 234.27-24.7 231.87-24.7 230.82-25.6ZM249.87-13.45L249.87-13.45 249.87 0 241.57 0 241.57-23.95 248.87-23.95 249.37-22.5 249.57-22.5Q250.72-23.8 251.89-24.18 253.07-24.55 255.72-24.55L255.72-24.55 255.37-16.55 253.07-16.55Q251.12-16.55 250.49-15.95 249.87-15.35 249.87-13.45ZM267.22-17.4L267.22-17.4Q265.92-17.4 265.52-16.53 265.12-15.65 265.12-13.85L265.12-13.85 269.47-13.85 269.47-15.05Q269.47-17.4 267.22-17.4ZM267.42-24.55L267.42-24.55Q272.57-24.55 274.79-22.08 277.02-19.6 277.02-15L277.02-15Q277.02-14.4 276.67-9.6L276.67-9.6 265.27-9.6Q265.27-5.85 268.72-5.85L268.72-5.85Q270.37-5.85 275.17-7L275.17-7 275.87-0.8Q271.67 0.5 267.47 0.5L267.47 0.5Q262.32 0.5 259.57-2.88 256.82-6.25 256.82-12.05L256.82-12.05Q256.82-24.55 267.42-24.55ZM301.26-5.75L300.51 0.3 297.16 0.5Q293.31 0.5 292.46-2.05L292.46-2.05 292.21-2.05Q290.56 0.5 287.16 0.5L287.16 0.5Q282.66 0.5 280.84-2.65 279.01-5.8 279.01-12.03 279.01-18.25 281.06-21.4 283.11-24.55 286.96-24.55L286.96-24.55Q289.61-24.55 291.06-23.3L291.06-23.3 291.06-32.05 299.41-32.05 299.41-7.35Q299.41-6.4 299.81-6.08 300.21-5.75 301.26-5.75L301.26-5.75ZM289.19-17.5Q288.11-17.5 287.76-16.23 287.41-14.95 287.41-12.58 287.41-10.2 287.46-9.35 287.51-8.5 287.69-7.63 287.86-6.75 288.24-6.43 288.61-6.1 289.49-6.1 290.36-6.1 291.31-6.55L291.31-6.55 291.31-16.9Q290.26-17.5 289.19-17.5ZM330.96-31.05L336.66 0 328.31 0 327.36-4.9 321.46-4.9 320.51 0 312.56 0 318.26-31.05 330.96-31.05ZM322.56-10.75L326.41-10.75 324.66-21.85 324.31-21.85 322.56-10.75ZM348.26-31.05L348.26 0 339.76 0 339.76-31.05 348.26-31.05ZM371.55-0.55L371.35-0.55 371.35 6.85 362.95 6.85 362.95-23.95 369.85-23.95 370.35-22.45 370.6-22.45Q372-24.5 376.1-24.5 380.2-24.5 381.88-21.65 383.55-18.8 383.55-12.3 383.55-5.8 381.78-2.63 380 0.55 375.25 0.55L375.25 0.55Q373.05 0.55 371.55-0.55L371.55-0.55ZM374.88-7.53Q375.05-8.4 375.1-9.25 375.15-10.1 375.15-12.48 375.15-14.85 374.8-16.13 374.45-17.4 373.38-17.4 372.3-17.4 371.25-16.8L371.25-16.8 371.25-6.45Q372.2-6 373.08-6 373.95-6 374.33-6.33 374.7-6.65 374.88-7.53ZM394.55-13.45L394.55-13.45 394.55 0 386.25 0 386.25-23.95 393.55-23.95 394.05-22.5 394.25-22.5Q395.4-23.8 396.57-24.18 397.75-24.55 400.4-24.55L400.4-24.55 400.05-16.55 397.75-16.55Q395.8-16.55 395.17-15.95 394.55-15.35 394.55-13.45ZM401.5-12.08Q401.5-18.65 404.02-21.6 406.55-24.55 411.92-24.55 417.3-24.55 419.75-21.65 422.2-18.75 422.2-12.13 422.2-5.5 419.8-2.5 417.4 0.5 411.95 0.5 406.5 0.5 404-2.5 401.5-5.5 401.5-12.08ZM413.52-16.8Q413.2-17.8 411.9-17.8 410.6-17.8 410.25-16.8 409.9-15.8 409.9-12.6L409.9-12.6 409.9-11.4Q409.9-7.85 410.25-6.8 410.6-5.75 411.87-5.75 413.15-5.75 413.5-6.8 413.85-7.85 413.85-11.1L413.85-11.1 413.85-12.55Q413.85-15.8 413.52-16.8ZM444.59-21.75L445.09-22.2Q447.84-24.55 451.14-24.55 454.44-24.55 455.77-23.03 457.09-21.5 457.09-18.45L457.09-18.45 457.09 0 448.59 0 448.59-15.6Q448.59-16.85 447.49-16.85L447.49-16.85Q446.09-16.85 445.14-16.15L445.14-16.15 445.14 0 436.64 0 436.64-15.6Q436.64-16.85 435.54-16.85L435.54-16.85Q434.14-16.85 433.19-16.15L433.19-16.15 433.19 0 424.79 0 424.79-23.95 432.44-23.95 432.94-22.2 433.14-22.2Q435.89-24.55 439.67-24.55 443.44-24.55 444.59-21.75L444.59-21.75ZM468.69-0.55L468.49-0.55 468.49 6.85 460.09 6.85 460.09-23.95 466.99-23.95 467.49-22.45 467.74-22.45Q469.14-24.5 473.24-24.5 477.34-24.5 479.02-21.65 480.69-18.8 480.69-12.3 480.69-5.8 478.92-2.63 477.14 0.55 472.39 0.55L472.39 0.55Q470.19 0.55 468.69-0.55L468.69-0.55ZM472.02-7.53Q472.19-8.4 472.24-9.25 472.29-10.1 472.29-12.48 472.29-14.85 471.94-16.13 471.59-17.4 470.52-17.4 469.44-17.4 468.39-16.8L468.39-16.8 468.39-6.45Q469.34-6 470.22-6 471.09-6 471.47-6.33 471.84-6.65 472.02-7.53ZM497.14-6.6L496.89 0.05Q493.19 0.5 490.46 0.5 487.74 0.5 486.21-0.93 484.69-2.35 484.69-5.85L484.69-5.85 484.69-17.45 482.29-17.45 482.29-23.65 485.09-23.65 485.54-28.25 493.09-28.25 493.09-23.65 497.54-23.65 497.19-17.45 493.04-17.45 493.04-7.5Q493.04-6.45 494.04-6.45L494.04-6.45Q494.14-6.45 497.14-6.6L497.14-6.6ZM497.94-16.88Q497.94-20.5 500.16-22.53 502.39-24.55 506.29-24.55 510.19-24.55 514.19-23.55L514.19-23.55 513.34-16.6Q508.24-17.75 506.49-17.75L506.49-17.75Q505.44-17.75 505.44-16.9L505.44-16.9Q505.44-16.35 506.59-15.9L506.59-15.9Q510.59-14.45 512.61-12.6 514.64-10.75 514.64-7.05 514.64-3.35 512.74-1.43 510.84 0.5 506.91 0.5 502.99 0.5 499.09-0.5L499.09-0.5 499.64-7.25Q504.64-5.9 506.11-5.9 507.59-5.9 507.59-6.6 507.59-7.3 506.49-7.7L506.49-7.7Q502.04-9.4 499.99-11.33 497.94-13.25 497.94-16.88Z" opacity="1" transform="matrix(1,0,0,1,0,0)" fill="#000000" class="slogan-text-1" data-fill-palette-color="secondary" id="text-1"></path></svg></g></svg></g></svg></g></svg></g><g></g></svg></g></svg></g></svg></g></svg></g><defs></defs></svg><rect width="395.52" height="247.2" fill="none" stroke="none" visibility="hidden"></rect></g></svg></g></svg>